<?xml version="1.0" encoding="UTF-8"?>
<svg width="512px" height="512px" viewBox="0 0 512 512" version="1.1" xmlns="http://www.w3.org/2000/svg" xmlns:xlink="http://www.w3.org/1999/xlink">
    <title>Backstop-logo</title>
    <g id="Backstop-logo" stroke="none" stroke-width="1" fill="none" fill-rule="evenodd">
        <g id="Backstop_logo" transform="translate(90.000000, 216.000000)">
            <g id="graphic">
                <path d="M34,16 C51.673112,16 66,30.326888 66,48 C66,65.673112 51.673112,80 34,80 C16.326888,80 2,65.673112 2,48 L16,48 C16,57.9411255 24.0588745,66 34,66 C43.9411255,66 52,57.9411255 52,48 C52,38.0588745 43.9411255,30 34,30 L34,16 Z" id="Path" fill="#001437" fill-rule="nonzero"></path>
                <circle id="Oval" fill="#96C869" cx="9" cy="32" r="9"></circle>
                <circle id="Oval" fill="#00A5E6" cx="9" cy="9" r="9"></circle>
            </g>
            <path d="M102.389071,68.6851441 C107.808267,68.6851441 111.679122,67.308204 113.942083,64.7339246 C115.847735,62.45898 116.80056,59.8847007 116.80056,56.9512195 C116.80056,51.8625277 114.001635,48.27051 109.475712,46.8935698 L110.011677,46.654102 L111.560019,45.5166297 C113.584773,43.8403548 114.597151,41.3858093 114.597151,38.0332594 C114.597151,35.45898 113.584773,32.8248337 111.798225,30.72949 C109.892574,28.4545455 105.723961,26.8381375 100.483419,26.8381375 L85,26.8381375 L85,68.6851441 L102.389071,68.6851441 Z M92.2652966,33.8425721 L100.304764,33.8425721 C105.068893,33.8425721 107.212751,35.3991131 107.212751,39.1108647 C107.212751,42.3436807 104.890238,43.9600887 100.304764,43.9600887 L92.2652966,43.9600887 L92.2652966,33.8425721 Z M92.2652966,50.9645233 L101.436245,50.9645233 C106.79589,50.9645233 109.416161,52.7006652 109.416161,56.172949 C109.416161,60.4235033 106.974545,61.6807095 102.269967,61.6807095 L92.2652966,61.6807095 L92.2652966,50.9645233 Z M147.660673,48.210643 C147.660673,40.0687361 142.717889,36.3569845 135.571695,36.3569845 C130.986221,36.3569845 126.758057,37.9733925 122.946754,41.1463415 L126.043438,45.6962306 C129.140121,43.54102 131.998599,42.4035477 134.678421,42.4035477 C138.906586,42.4035477 140.93134,44.3791574 140.93134,48.3303769 L140.93134,49.2283814 L133.189631,49.2283814 C125.686128,49.2283814 120.981551,52.4013304 120.981551,58.7472284 C120.981551,61.8603104 121.993928,64.4345898 124.078234,66.3503326 C126.162541,68.2062084 128.782812,69.1640798 131.879496,69.1640798 C135.869454,69.1640798 139.025689,67.9068736 141.467305,65.0332594 L141.467305,68.6851441 L147.660673,68.6851441 L147.660673,48.210643 Z M140.93134,56.7716186 C140.93134,60.6031042 137.536899,62.9977827 133.725596,62.9977827 C129.914292,62.9977827 127.710883,61.4412417 127.710883,58.5676275 C127.710883,55.7538803 129.854741,54.7361419 134.142457,54.7361419 L140.93134,54.7361419 L140.93134,56.7716186 Z M168.813872,69.1640798 C173.637553,69.1640798 177.865717,67.1286031 181.67702,63.1773836 L177.627511,58.4478936 C175.066791,61.1419069 172.44652,62.578714 169.766698,62.578714 C164.526156,62.578714 160.23844,58.0288248 160.23844,52.5809313 C160.23844,47.6718404 164.049743,43.0620843 169.349837,43.0620843 C171.910556,43.0620843 174.709482,44.2594235 177.389304,46.713969 L181.379262,41.5055432 C178.103923,38.0931264 174.233069,36.3569845 169.707146,36.3569845 C165.181224,36.3569845 161.310369,37.9135255 158.154134,40.9667406 C155.05745,44.0199557 153.449556,47.9711752 153.449556,52.8203991 C153.449556,57.6097561 154.997898,61.6208426 157.975479,64.6740576 C160.953059,67.6674058 164.645259,69.1640798 168.813872,69.1640798 Z M193.718823,59.7050998 L198.006539,55.1552106 L206.581971,68.6851441 L214.800093,68.6851441 L202.532461,49.5875831 L214.145026,36.8359202 L205.331387,36.8359202 L193.718823,49.7073171 L193.718823,26 L186.989491,26 L186.989491,68.6851441 L193.718823,68.6851441 L193.718823,59.7050998 Z M228.926203,69.1640798 C234.583606,69.1640798 240.181457,65.4523282 240.181457,59.0465632 C240.181457,55.9334812 239.049977,53.7184035 237.025222,52.2815965 C233.511677,49.767184 229.521719,49.3481153 225.472209,47.5521064 C224.638487,47.1330377 224.162074,46.4146341 224.162074,45.5764967 C224.162074,43.481153 226.127277,42.4634146 228.926203,42.4634146 C231.665577,42.4634146 234.345399,43.3614191 236.787015,45.097561 L239.407286,39.7095344 C236.191499,37.4944568 232.797057,36.3569845 229.402616,36.3569845 C223.745213,36.3569845 217.611397,39.6496674 217.611397,46.2350333 C217.611397,50.5454545 220.70808,53.5388027 227.020551,55.3348115 C231.367819,56.7716186 233.392574,58.1485588 233.392574,59.5254989 C233.392574,61.4412417 231.78468,62.8780488 229.104858,62.8780488 C225.948622,62.8780488 222.613732,61.4412417 219.100187,58.6274945 L215.705745,64.195122 C219.457496,67.368071 224.638487,69.1640798 228.926203,69.1640798 Z M261.513312,42.8824834 L261.513312,36.8359202 L253.71205,36.8359202 L253.71205,26 L246.982718,26 L246.982718,33.4833703 C246.982718,35.7583149 245.374825,37.0155211 243.409622,37.0155211 L242.99276,37.0155211 L242.99276,42.8824834 L246.982718,42.8824834 L246.982718,58.1485588 C246.982718,64.9733925 251.627744,69.1640798 256.927837,69.1640798 C258.476179,69.1640798 260.024521,68.804878 261.513312,68.0266075 L261.513312,61.6807095 C261.513312,61.6807095 259.429005,62.8780488 257.523354,62.8780488 C255.022186,62.8181818 253.71205,60.6031042 253.71205,58.3281596 L253.71205,42.8824834 L261.513312,42.8824834 Z M280.701308,62.6984479 C275.341663,62.6984479 271.649463,58.2084257 271.649463,52.7605322 C271.649463,47.6119734 275.043905,42.8226164 280.701308,42.8226164 C285.94185,42.8226164 289.753153,47.4323725 289.753153,52.7605322 C289.753153,58.0288248 286.358711,62.518847 280.701308,62.6984479 Z M292.016114,64.4345898 C294.993695,61.2616408 296.601588,57.4301552 296.601588,52.7605322 C296.601588,48.0909091 294.993695,44.3192905 292.016114,41.1463415 C289.038533,37.9733925 285.286782,36.3569845 280.701308,36.3569845 C276.175385,36.3569845 272.364082,37.9733925 269.386502,41.1463415 C266.408921,44.3192905 264.801028,48.0909091 264.801028,52.7605322 C264.801028,57.4301552 266.408921,61.2616408 269.386502,64.4345898 C272.364082,67.6075388 276.175385,69.1640798 280.701308,69.1640798 C285.286782,69.1640798 289.038533,67.6075388 292.016114,64.4345898 Z M309.000701,80 L309.000701,66.0509978 C311.382765,67.9068736 314.300794,69.2239468 317.576133,69.2239468 C326.151565,69.2239468 333,61.6208426 333,52.8203991 C333,44.3791574 326.687529,36.4168514 317.576133,36.4168514 C314.241242,36.4168514 311.382765,37.7937916 309.000701,39.5898004 L309.000701,36.8359202 L302.152265,36.8359202 L302.152265,80 L309.000701,80 Z M308.762494,52.8203991 C308.762494,47.7915743 311.978281,42.8824834 317.576133,42.8824834 C322.935778,42.8824834 326.33022,47.4922395 326.33022,52.8203991 C326.33022,57.8492239 323.114433,62.7583149 317.576133,62.7583149 C312.335591,62.7583149 308.762494,58.0886918 308.762494,52.8203991 Z" id="Backstop_text" fill="#001437" fill-rule="nonzero"></path>
        </g>
    </g>
</svg>