<?xml version="1.0" encoding="utf-8"?>
<!-- Generator: Adobe Illustrator 25.2.1, SVG Export Plug-In . SVG Version: 6.00 Build 0)  -->
<svg version="1.1" id="Layer_1" xmlns="http://www.w3.org/2000/svg" xmlns:xlink="http://www.w3.org/1999/xlink" x="0px" y="0px"
	 viewBox="0 0 451.6 217.7" style="enable-background:new 0 0 451.6 217.7;" xml:space="preserve">
<style type="text/css">
	.st0{fill:#22A23B;}
	.st1{fill-rule:evenodd;clip-rule:evenodd;fill:#22A23B;}
</style>
<g>
	<path class="st0" d="M130.7,68.2c4.4,1,8.2,2.4,11.3,4.5c5.8,3.8,8.8,9.4,8.8,16.7c0,4.2-1,7.9-2.9,11c-1.9,3.2-4.7,5.7-8.3,7.6
		c4.4,1.3,7.8,3.7,10.2,7.1c2.4,3.4,3.6,7.6,3.6,12.6c0,7.3-2.4,13-7.3,17c-4.8,4-11.9,6.1-21.2,6.1h-16.2l3.9-14.4h9.8
		c4.6,0,8-0.9,10.4-2.8c2.4-1.9,3.6-4.5,3.6-8.1c0-3.3-1.1-5.9-3.3-7.7c-2.2-1.8-5.5-2.7-9.8-2.7h-8v-12.8h8.2
		c3.3,0,5.9-0.9,7.6-2.8c1.8-1.9,2.6-4.4,2.6-7.8c0-4.7-2.2-7.8-6.6-9.3L130.7,68.2z M72.2,136.4h15.2V81.3H72.2V66.9h40.8h8.5
		c0.4,0,0.7,0,1.1,0l-3.9,14.4h-5.7h-9.1v55.2h0l-3.9,14.4H72.2V136.4z M150.7,183.6H74.8c-10.1,0-19.3-4.1-26-10.8
		c-6.7-6.7-10.8-15.8-10.8-26V70.9c0-10.1,4.1-19.3,10.8-26c6.7-6.7,15.8-10.8,26-10.8h75.9c10.1,0,19.3,4.1,26,10.8
		c6.7,6.7,10.8,15.8,10.8,26v75.9c0,10.1-4.1,19.3-10.8,26C170,179.4,160.8,183.6,150.7,183.6z M74.8,167h75.9
		c5.5,0,10.6-2.3,14.3-5.9c3.7-3.7,5.9-8.7,5.9-14.3V70.9c0-5.5-2.3-10.6-5.9-14.3c-3.7-3.7-8.7-5.9-14.3-5.9H74.8
		c-5.5,0-10.6,2.3-14.3,5.9c-3.7,3.7-5.9,8.7-5.9,14.3v75.9c0,5.5,2.3,10.6,5.9,14.3C64.2,164.8,69.2,167,74.8,167z"/>
	<path class="st1" d="M222.1,117v50.1h10.2V117H222.1z M261.7,117v20h-10.3v-20h-10.2v50.1h10.2v-20.4h10.3v20.4h10.2V117H261.7z
		 M305.4,141.5c2.6-2.4,4.2-6.4,4.2-10.2c0-8.5-5.5-14.2-13.2-14.2h-15.6v50.1h15.8c8.6,0,14.7-6,14.7-15
		C311.3,147.6,309.1,143.6,305.4,141.5z M294.6,126.6c3.3,0,4.7,1.7,4.7,5.1c0,3.5-1.5,5.4-4.4,5.4h-4v-10.4H294.6z M294.8,157.5
		h-3.9v-10.9h4.1c3.8,0,5.9,1.9,5.9,5.5C300.9,155.6,298.8,157.5,294.8,157.5z M327.5,157.4v-11.1h14.2V137h-14.2v-10.4h15.7V117
		h-25.8v50.1h26.5v-9.7H327.5z M364.8,167.9c10.2,0,16-5.7,16.2-16.2h-10.2c-0.3,4.4-2.1,6.3-6,6.3c-3.1,0-4.9-2-4.9-6.3v-19.5
		c0-4.4,1.8-6.4,4.9-6.4c3.9,0,5.6,1.9,5.9,6.4h10.2c-0.4-10.6-5.9-16.3-16-16.3c-9.8,0-15.5,5.7-15.5,16.3v19.5
		C349.4,162.3,355.1,167.9,364.8,167.9z M413.6,117h-30.1v9.7h9.8v40.4h10.4v-40.4h9.8V117z"/>
	<path class="st1" d="M246.7,75.1c2.6-2.4,4.2-6.4,4.2-10.2c0-8.5-5.5-14.2-13.2-14.2h-15.6v50.1h15.8c8.6,0,14.7-6,14.7-15
		C252.6,81.3,250.4,77.3,246.7,75.1 M235.9,60.3c3.3,0,4.7,1.7,4.7,5.1c0,3.5-1.5,5.4-4.4,5.4h-4V60.3H235.9z M236.1,91.2h-3.9V80.2
		h4.1c3.8,0,5.9,1.9,5.9,5.5C242.2,89.3,240.1,91.2,236.1,91.2z M277.5,100.8h10.5l-12-50.1h-10.9l-12,50.1h10.5l1.6-8.3h10.6
		L277.5,100.8z M267.3,82.8l1.1-5.7c0.7-3.6,1.5-9.7,2-13.7h0.3c0.5,4.1,1.4,10.2,2,13.7l1.1,5.7H267.3z M318,50.7h-25.3v50.1h10.2
		V60.3H318V50.7z M338.3,101.6c10.2,0,16.2-6.4,16.2-17.1V66.9c0-10.7-6.1-17.1-16.2-17.1c-10.2,0-16.2,6.4-16.2,17.1v17.6
		C322.1,95.2,328.1,101.6,338.3,101.6z M338.3,91.7c-3.8,0-5.7-2.5-5.7-7.2V66.9c0-4.7,1.9-7.2,5.7-7.2c3.8,0,5.7,2.5,5.7,7.2v17.6
		C344,89.2,342.1,91.7,338.3,91.7z M382.5,50.7v20h-10.3v-20H362v50.1h10.2V80.4h10.3v20.4h10.2V50.7H382.5z"/>
</g>
</svg>
