<svg width="452" height="218" viewBox="0 0 452 218" fill="none" xmlns="http://www.w3.org/2000/svg">
<path d="M130.7 68.2C135.1 69.2 138.9 70.6 142 72.7C147.8 76.5 150.8 82.1 150.8 89.4C150.8 93.6 149.8 97.3 147.9 100.4C146 103.6 143.2 106.1 139.6 108C144 109.3 147.4 111.7 149.8 115.1C152.2 118.5 153.4 122.7 153.4 127.7C153.4 135 151 140.7 146.1 144.7C141.3 148.7 134.2 150.8 124.9 150.8H108.7L112.6 136.4H122.4C127 136.4 130.4 135.5 132.8 133.6C135.2 131.7 136.4 129.1 136.4 125.5C136.4 122.2 135.3 119.6 133.1 117.8C130.9 116 127.6 115.1 123.3 115.1H115.3V102.3H123.5C126.8 102.3 129.4 101.4 131.1 99.5C132.9 97.6 133.7 95.1 133.7 91.7C133.7 87 131.5 83.9 127.1 82.4L130.7 68.2ZM72.2 136.4H87.4V81.3H72.2V66.9H113H121.5C121.9 66.9 122.2 66.9 122.6 66.9L118.7 81.3H113H103.9V136.5L100 150.9H72.2V136.4ZM150.7 183.6H74.8C64.7 183.6 55.5 179.5 48.8 172.8C42.1 166.1 38 157 38 146.8V70.9C38 60.8 42.1 51.6 48.8 44.9C55.5 38.2 64.6 34.1 74.8 34.1H150.7C160.8 34.1 170 38.2 176.7 44.9C183.4 51.6 187.5 60.7 187.5 70.9V146.8C187.5 156.9 183.4 166.1 176.7 172.8C170 179.4 160.8 183.6 150.7 183.6ZM74.8 167H150.7C156.2 167 161.3 164.7 165 161.1C168.7 157.4 170.9 152.4 170.9 146.8V70.9C170.9 65.4 168.6 60.3 165 56.6C161.3 52.9 156.3 50.7 150.7 50.7H74.8C69.3 50.7 64.2 53 60.5 56.6C56.8 60.3 54.6 65.3 54.6 70.9V146.8C54.6 152.3 56.9 157.4 60.5 161.1C64.2 164.8 69.2 167 74.8 167Z" fill="#007BFF"/>
<path fill-rule="evenodd" clip-rule="evenodd" d="M222.1 117V167.1H232.3V117H222.1ZM261.7 117V137H251.4V117H241.2V167.1H251.4V146.7H261.7V167.1H271.9V117H261.7ZM305.4 141.5C308 139.1 309.6 135.1 309.6 131.3C309.6 122.8 304.1 117.1 296.4 117.1H280.8V167.2H296.6C305.2 167.2 311.3 161.2 311.3 152.2C311.3 147.6 309.1 143.6 305.4 141.5ZM294.6 126.6C297.9 126.6 299.3 128.3 299.3 131.7C299.3 135.2 297.8 137.1 294.9 137.1H290.9V126.7H294.6V126.6ZM294.8 157.5H290.9V146.6H295C298.8 146.6 300.9 148.5 300.9 152.1C300.9 155.6 298.8 157.5 294.8 157.5ZM327.5 157.4V146.3H341.7V137H327.5V126.6H343.2V117H317.4V167.1H343.9V157.4H327.5ZM364.8 167.9C375 167.9 380.8 162.2 381 151.7H370.8C370.5 156.1 368.7 158 364.8 158C361.7 158 359.9 156 359.9 151.7V132.2C359.9 127.8 361.7 125.8 364.8 125.8C368.7 125.8 370.4 127.7 370.7 132.2H380.9C380.5 121.6 375 115.9 364.9 115.9C355.1 115.9 349.4 121.6 349.4 132.2V151.7C349.4 162.3 355.1 167.9 364.8 167.9ZM413.6 117H383.5V126.7H393.3V167.1H403.7V126.7H413.5V117H413.6Z" fill="#007BFF"/>
<path fill-rule="evenodd" clip-rule="evenodd" d="M246.7 75.1C249.3 72.7 250.9 68.7 250.9 64.9C250.9 56.4 245.4 50.7 237.7 50.7H222.1V100.8H237.9C246.5 100.8 252.6 94.8 252.6 85.8C252.6 81.3 250.4 77.3 246.7 75.1ZM235.9 60.3C239.2 60.3 240.6 62 240.6 65.4C240.6 68.9 239.1 70.8 236.2 70.8H232.2V60.3H235.9ZM236.1 91.2H232.2V80.2H236.3C240.1 80.2 242.2 82.1 242.2 85.7C242.2 89.3 240.1 91.2 236.1 91.2ZM277.5 100.8H288L276 50.7H265.1L253.1 100.8H263.6L265.2 92.5H275.8L277.5 100.8ZM267.3 82.8L268.4 77.1C269.1 73.5 269.9 67.4 270.4 63.4H270.7C271.2 67.5 272.1 73.6 272.7 77.1L273.8 82.8H267.3ZM318 50.7H292.7V100.8H302.9V60.3H318V50.7ZM338.3 101.6C348.5 101.6 354.5 95.2 354.5 84.5V66.9C354.5 56.2 348.4 49.8 338.3 49.8C328.1 49.8 322.1 56.2 322.1 66.9V84.5C322.1 95.2 328.1 101.6 338.3 101.6ZM338.3 91.7C334.5 91.7 332.6 89.2 332.6 84.5V66.9C332.6 62.2 334.5 59.7 338.3 59.7C342.1 59.7 344 62.2 344 66.9V84.5C344 89.2 342.1 91.7 338.3 91.7ZM382.5 50.7V70.7H372.2V50.7H362V100.8H372.2V80.4H382.5V100.8H392.7V50.7H382.5Z" fill="#007BFF"/>
</svg>
