<?xml version="1.0" encoding="utf-8"?>
<!-- Generator: Adobe Illustrator 19.0.0, SVG Export Plug-In . SVG Version: 6.00 Build 0)  -->
<svg version="1.1" id="layer" xmlns="http://www.w3.org/2000/svg" xmlns:xlink="http://www.w3.org/1999/xlink" x="0px" y="0px"
	 viewBox="-153 -46 652 652" style="enable-background:new -153 -46 652 652;" xml:space="preserve">
<style type="text/css">
	.st0{fill-rule:evenodd;clip-rule:evenodd;}
	.st1{fill:none;stroke:#000000;stroke-width:1.553;stroke-miterlimit:3.8637;}
	.st2{fill-rule:evenodd;clip-rule:evenodd;fill:#FFFFFF;}
	.st3{fill:none;stroke:#FFFFFF;stroke-width:1.2512;stroke-miterlimit:3.8637;}
	.st4{fill-rule:evenodd;clip-rule:evenodd;fill:#E1091F;}
	.st5{fill:none;stroke:#E1091F;stroke-width:1.2512;stroke-miterlimit:3.8637;}
</style>
<path class="st0" d="M-35.6,470c-0.4-3-1.4-5.7-3-8.2c-2.4-3.3-6.1-4.9-11-4.9c-7.1,0-12,3.5-14.6,10.6c-1.4,3.8-2.1,8.7-2.1,15
	c0,5.9,0.7,10.7,2.1,14.3c2.5,6.7,7.3,10.1,14.2,10.1c4.9,0,8.5-1.3,10.5-4c2.1-2.7,3.3-6.1,3.8-10.4h21.6c-0.5,6.4-2.8,12.5-7,18.2
	c-6.6,9.2-16.4,13.9-29.4,13.9c-13,0-22.6-3.9-28.7-11.6c-6.1-7.7-9.2-17.7-9.2-30c0-13.9,3.4-24.7,10.2-32.4
	c6.8-7.7,16.1-11.6,28-11.6c10.1,0,18.4,2.3,24.8,6.8c6.5,4.5,10.3,12.6,11.5,24.1H-35.6z M25.1,473.5c-8.2,1-14.3,2.8-18.5,5.2
	c-7.7,4.4-11.5,11.6-11.5,21.6c0,7.7,2.4,13.6,7.1,17.8c4.8,4.2,10.9,6.2,18.2,6.2c5.7,0,10.9-1.3,15.4-3.9
	c3.8-2.2,7.2-4.9,10.1-8.1c0.1,1.8,0.3,3.5,0.6,4.9c0.2,1.4,0.7,3,1.3,4.6h23v-3.1c-1.4-0.6-2.4-1.5-3.1-2.4c-0.7-1-1.1-2.9-1.3-5.6
	c-0.1-3.7-0.1-6.8-0.1-9.3v-37.1c0-9.7-3.4-16.4-10.3-19.9c-6.9-3.5-14.7-5.3-23.6-5.3c-13.6,0-23.2,3.6-28.8,10.7
	c-3.5,4.5-5.5,10.4-5.9,17.4h20.4c0.5-3.1,1.5-5.6,3-7.4c2.1-2.5,5.6-3.7,10.6-3.7c4.4,0,7.8,0.6,10.1,1.9c2.3,1.2,3.5,3.5,3.5,6.8
	c0,2.7-1.5,4.7-4.5,6c-1.7,0.7-4.5,1.4-8.4,1.9L25.1,473.5z M45.1,490.4c-0.1,7.1-2.2,11.9-6,14.6c-3.8,2.7-8,4-12.5,4
	c-2.9,0-5.3-0.8-7.3-2.4c-2-1.6-3-4.3-3-7.9c0-4.1,1.6-7,4.9-9c1.9-1.1,5.1-2.1,9.6-2.9l4.7-0.9c2.4-0.4,4.2-0.9,5.6-1.4
	c1.4-0.5,2.7-1.2,4.1-2.1V490.4z M129.8,439.1c-6.7,0-12.2,1.6-16.5,4.9c-2.4,1.8-5,4.8-7.7,9v-11.8H85.1v80.7h21.1v-43.7
	c0-5,0.7-9.1,2.1-12.3c2.7-6.1,7.6-9.1,14.8-9.1c5.8,0,9.8,2.1,11.9,6.2c1.1,2.3,1.7,5.5,1.7,9.8v49.2h21.7v-54.4
	c0-10.1-2.7-17.4-8-21.7C145,441.3,138.1,439.1,129.8,439.1z M180.7,456.8v49.7c0,5,1.2,8.8,3.6,11.2c3.7,3.8,10.5,5.5,20.5,5.2
	l10-0.4v-15.8c-0.7,0.1-1.4,0.1-2.2,0.1c-0.7,0-1.4,0-2,0c-4.3,0-6.9-0.4-7.7-1.2c-0.8-0.8-1.3-2.9-1.3-6.2v-42.7h13.1v-15h-13.1
	v-22.5h-20.9v22.5h-11.3v15H180.7z M228.6,521.8H250V441h-21.4V521.8z M250,411.8h-21.4v19.5H250V411.8z M265.5,496
	c0,8.3,3,15.1,9,20.5c6.1,5.3,15.5,8,28.2,8c12.5,0,21.7-2.5,27.6-7.6c6-5.1,9-11.6,9-19.6c0-6.1-2.1-11.1-6.2-15.2
	c-4.2-4-10.5-7-18.9-9c-12.6-2.8-19.9-4.7-22-5.9c-2.1-1.1-3.1-2.8-3.1-5.3c0-1.9,1-3.6,2.9-5c2-1.4,5.3-2.1,9.9-2.1
	c5.6,0,9.5,1.4,11.9,4.3c1.2,1.6,2,3.7,2.3,6.5H337c-0.9-9.9-4.6-16.8-11-20.8c-6.3-4.1-14.5-6.1-24.6-6.1
	c-10.6,0-18.9,2.7-24.8,8.1c-5.8,5.3-8.8,11.7-8.8,19.2c0,6.3,1.9,11.2,5.6,14.5c3.8,3.4,10.2,6.3,19.4,8.5c12.7,3,20,5.1,22,6.4
	c2,1.2,3,3,3,5.4c0,2.5-1.2,4.3-3.7,5.6c-2.4,1.2-5.7,1.9-9.9,1.9c-7.1,0-11.9-1.4-14.5-4.2c-1.5-1.6-2.4-4.3-2.9-8H265.5z
	 M379.4,473.5c-8.2,1-14.3,2.8-18.5,5.2c-7.7,4.4-11.5,11.6-11.5,21.6c0,7.7,2.4,13.6,7.1,17.8c4.8,4.2,10.9,6.2,18.2,6.2
	c5.7,0,10.9-1.3,15.4-3.9c3.8-2.2,7.2-4.9,10.1-8.1c0.1,1.8,0.3,3.5,0.6,4.9c0.2,1.4,0.7,3,1.3,4.6h23v-3.1
	c-1.4-0.6-2.4-1.5-3.1-2.4c-0.7-1-1.1-2.9-1.3-5.6c-0.1-3.7-0.1-6.8-0.1-9.3v-37.1c0-9.7-3.4-16.4-10.3-19.9
	c-6.9-3.5-14.7-5.3-23.6-5.3c-13.6,0-23.2,3.6-28.8,10.7c-3.5,4.5-5.5,10.4-5.9,17.4h20.4c0.5-3.1,1.5-5.6,3-7.4
	c2.1-2.5,5.6-3.7,10.6-3.7c4.4,0,7.8,0.6,10.1,1.9c2.3,1.2,3.5,3.5,3.5,6.8c0,2.7-1.5,4.7-4.5,6c-1.7,0.7-4.5,1.4-8.4,1.9
	L379.4,473.5z M399.4,490.4c-0.1,7.1-2.2,11.9-6,14.6c-3.8,2.7-8,4-12.5,4c-2.9,0-5.3-0.8-7.3-2.4c-2-1.6-3-4.3-3-7.9
	c0-4.1,1.6-7,4.9-9c1.9-1.1,5.1-2.1,9.6-2.9l4.7-0.9c2.4-0.4,4.2-0.9,5.6-1.4c1.4-0.5,2.7-1.2,4.1-2.1V490.4z"/>
<circle cx="165.5" cy="196.3" r="171.7"/>
<circle class="st1" cx="165.5" cy="196.3" r="171.7"/>
<polygon class="st2" points="3.3,196.1 131,196.1 258.4,323.6 130.5,323.6 "/>
<polygon class="st3" points="3.3,196.1 131,196.1 258.4,323.6 130.5,323.6 "/>
<polygon class="st4" points="166.3,196.1 294,196.1 421.4,323.6 293.4,323.6 "/>
<polygon class="st5" points="166.3,196.1 294,196.1 421.4,323.6 293.4,323.6 "/>
<polygon class="st4" points="258.4,68.7 130.7,68.7 3.3,196.1 131.3,196.1 "/>
<polygon class="st5" points="258.4,68.7 130.7,68.7 3.3,196.1 131.3,196.1 "/>
</svg>
