<?xml version="1.0" encoding="UTF-8"?>
<!DOCTYPE svg PUBLIC "-//W3C//DTD SVG 1.1//EN" "http://www.w3.org/Graphics/SVG/1.1/DTD/svg11.dtd">
<!-- Creator: CorelDRAW -->
<svg xmlns="http://www.w3.org/2000/svg" xml:space="preserve" width="217.822mm" height="58.07mm" version="1.1" style="shape-rendering:geometricPrecision; text-rendering:geometricPrecision; image-rendering:optimizeQuality; fill-rule:evenodd; clip-rule:evenodd"
viewBox="0 0 21782.24 5807"
 xmlns:xlink="http://www.w3.org/1999/xlink"
 xmlns:xodm="http://www.corel.com/coreldraw/odm/2003">
 <defs>
  <style type="text/css">
   <![CDATA[
    .fil3 {fill:#3B1082;fill-rule:nonzero}
    .fil0 {fill:#3B1082;fill-rule:nonzero}
    .fil2 {fill:#ABABAB;fill-rule:nonzero}
    .fil1 {fill:white;fill-rule:nonzero}
   ]]>
  </style>
 </defs>
 <g id="Слой_x0020_1">
  <metadata id="CorelCorpID_0Corel-Layer"/>
  <g id="_1908510327632">
   <g>
    <path class="fil0" d="M5807.04 2544.98l0 358.52c0,1603.86 -1299.64,2903.5 -2903.5,2903.5 -1603.9,0 -2903.54,-1299.64 -2903.54,-2903.5 0,-149.61 11.37,-296.68 32.85,-439.96 212.07,-1394.95 1416.4,-2463.54 2870.69,-2463.54 1454.29,0 2695.22,1101.44 2879.51,2527.92l23.99 17.06z"/>
    <path class="fil1" d="M3750.09 2104.95c87.11,18.95 171.68,35.35 254.37,56.8 87.74,22.11 175.47,49.88 262.58,73.87 12.62,3.78 17.03,8.2 17.03,22.07 0,272.69 2.54,545.38 -1.25,817.41 -3.79,292.89 -96.56,557.97 -274.57,790.27 -198.2,259.42 -458.24,426.68 -775.74,503.05 -125,30.31 -253.12,39.76 -381.24,32.19 -305.51,-18.29 -575.67,-125.59 -806.68,-325.04 -238.59,-205.16 -388.83,-463.95 -449.41,-773.24 -17.03,-87.73 -23.99,-177.38 -23.99,-266.99 0,-258.16 0,-515.7 -0.62,-773.86 0,-17.04 5.66,-23.36 21.44,-27.78 166.64,-53.01 335.82,-95.31 507.5,-126.21 1.88,0 3.13,0 6.92,0l0 20.2c0,323.78 -1.25,647.61 0.66,971.4 1.25,163.47 23.36,324.45 78.9,479.1 44.18,123.04 109.18,232.26 206.37,321.25 90.9,82.69 198.2,135.07 317.5,160.97 169.18,36.6 338.36,33.44 504.33,-18.94 196.33,-61.84 332.03,-191.88 419.1,-375.59 46.72,-97.81 75.16,-201.95 92.19,-308.63 19.57,-118.67 24.61,-238.59 24.61,-359.14l0 -866.63c0,-7.58 0,-14.53 0,-26.53z"/>
    <path class="fil1" d="M3166.37 2704.78l-476.56 0 0 -1114.72c49.88,-15.78 381.88,-17.03 476.56,-1.25l0 1115.97z"/>
    <path class="fil2" d="M5783.2 2527.92l-2108.82 -1490.27c-440.58,-311.8 -1027.61,-319.37 -1476.39,-19.53l-2164.99 1445.42c212.07,-1394.95 1416.4,-2463.54 2870.68,-2463.54 1454.29,0 2695.22,1101.44 2879.52,2527.92z"/>
   </g>
   <g>
    <path class="fil3" d="M12558.82 1630.7c0,256.64 -145.34,375.6 -361.14,375.6 -215.88,0 -356.04,-116.43 -356.04,-375.6l0 -848.03 -465.68 0 0 864.18c0,563.38 470.76,783.46 825.08,783.46 354.37,0 825.94,-220.94 825.94,-783.46l0 -864.18 -465.63 0 -2.53 848.03z"/>
    <polygon class="fil3" points="10982.02,1176.1 10982.02,782.67 9467.83,782.67 9467.83,1176.1 10364.25,1176.1 9432.08,2007.13 9432.08,2400.56 11038.99,2400.56 11038.99,2007.13 10051.58,2007.13 "/>
    <path class="fil3" d="M15358.87 752.21c-294.84,0 -517.5,119.82 -628.01,302.51 -112.12,-182.69 -356.03,-302.51 -609.2,-302.51 -497.94,0 -757.13,316.95 -757.13,709.55l0 939.79 465.63 0 0 -873.51c0,-187.8 98.59,-352.65 324.64,-352.65 45.87,-2.55 91.79,4.25 135.07,20.39 43.32,16.15 82.4,41.65 114.73,74.79 32.29,32.28 57.79,72.2 73.9,115.54 16.14,43.34 22.98,89.23 20.42,135.12l0 880.32 465.63 0 0 -881.18c0,-187.77 110.51,-345.84 333.95,-345.84 223.5,0 331.4,164.85 331.4,352.65l0 873.53 465.68 0 0 -938.12c0,-391.71 -240.49,-709.52 -740.99,-709.52l4.28 0 0 -0.86z"/>
    <path class="fil3" d="M8659.41 1630.7c0,256.64 -145.29,375.6 -359.42,375.6 -214.14,0 -357.76,-116.43 -357.76,-375.6l0 -848.03 -465.66 0 0 864.18c0,563.38 469.07,783.46 825.11,783.46 356.04,0 824.23,-220.94 824.23,-783.46l0 -864.18 -465.64 0 0 848.03 -0.86 0z"/>
   </g>
   <g>
    <path class="fil3" d="M13068.9 3895.72c0,-356.19 -265.89,-535.17 -798.39,-533.42 -366.77,0 -793.15,99.13 -793.15,492.2 0,207.04 124.62,371.11 307.08,428.13 187.79,57.91 376.38,85.99 569.42,100.91 107.88,7.89 308.78,39.47 308.78,158.79 -1.73,109.66 -126.32,164.07 -371.94,164.07 -245.7,0 -363.27,-56.16 -363.27,-203.57l0 -49.99 -481.65 0 0 49.99c0,368.5 280.75,551.87 844.92,551.87 567.61,1.75 852.78,-172.85 852.78,-517.65 0,-262.31 -186.06,-421.12 -418.57,-467.62 -223.7,-46.5 -457.93,-51.75 -643.91,-99.13 -81.63,-21.94 -122.83,-66.69 -122.83,-113.18 0,-99.13 100.02,-149.16 301.76,-149.16 201.81,0 327.24,28.08 327.24,187.76l481.73 0z"/>
    <path class="fil3" d="M19831.14 3895.72c0,-356.19 -265.81,-535.17 -798.39,-533.42 -366.72,0 -793.07,99.13 -793.07,492.2 0,207.04 124.55,371.11 307.05,428.13 187.71,57.91 376.41,85.99 569.37,100.91 107.96,7.89 308.86,39.47 308.86,158.79 -1.81,109.66 -126.35,164.07 -372.05,164.07 -245.62,0 -363.16,-56.16 -363.16,-203.57l0 -49.99 -481.65 0 0 49.99c0,368.5 280.72,551.87 844.81,551.87 567.7,1.75 852.78,-172.85 852.78,-517.65 0,-262.31 -185.98,-421.12 -418.46,-467.62 -223.73,-46.5 -457.93,-51.75 -643.99,-99.13 -81.55,-21.94 -122.82,-66.69 -122.82,-113.18 0,-99.13 100.01,-149.16 301.83,-149.16 201.81,0 327.24,28.08 327.24,187.76l481.65 0z"/>
    <path class="fil3" d="M21707.67 3895.72c0,-356.19 -265.81,-535.17 -798.32,-533.42 -366.77,0 -793.12,99.13 -793.12,492.2 0,207.04 124.52,371.11 307.06,428.13 187.7,57.91 376.38,85.99 569.33,100.91 107.96,7.89 308.89,39.47 308.89,158.79 -1.73,109.66 -126.35,164.07 -372.05,164.07 -245.62,0 -363.19,-56.16 -363.19,-203.57l0 -49.99 -481.65 0 0 49.99c0,368.5 280.75,551.87 844.84,551.87 567.7,1.75 852.78,-172.85 852.78,-517.65 0,-262.31 -185.98,-421.12 -418.46,-467.62 -223.73,-46.5 -457.96,-51.75 -643.94,-99.13 -81.6,-21.94 -122.87,-66.69 -122.87,-113.18 0,-99.13 100.01,-149.16 301.8,-149.16 201.81,0 327.25,28.08 327.25,187.76l481.65 0z"/>
    <polygon class="fil3" points="13909.01,3392.05 13441.42,3392.05 13441.42,5016.9 13909.01,5016.9 "/>
    <path class="fil3" d="M10783.47 4250.14c0,257.08 -145.68,377.27 -362.36,377.27 -216.73,0 -357.99,-120.19 -357.99,-377.27l0 -851.9 -468.46 0 0 868.59c0,565 470.24,787.84 828.18,787.84 358.01,0 828.25,-223.73 828.25,-787.84l0 -868.59 -468.51 0 0 851.9 0.89 0z"/>
    <g>
     <path class="fil3" d="M8430.25 3766.87c-266.69,0 -465.87,182.48 -465.87,440.4 0,257.95 199.18,434.29 465.87,434.29 266.73,0 472.88,-178.98 472.88,-434.29 0,-255.31 -199.12,-440.4 -472.88,-440.4zm4.37 1287.93c-559.76,0 -958.05,-264.97 -958.05,-908.94l0 -1257.24 464.09 0 0 672.93c135.13,-133.34 313.22,-197.39 569.42,-197.39 558.03,0 870.33,381.63 870.33,843.11 0,550.98 -429.04,847.53 -944.9,847.53l-0.89 0zm0 0l0 0 0 0z"/>
    </g>
    <path class="fil3" d="M15467.38 4164.15c0,-257.09 -146.54,-377.27 -362.35,-377.27 -215.84,0 -357.94,120.18 -357.94,377.27l0 851 -469.43 0 0 -867.7c0,-565.86 471.15,-787.84 829.09,-787.84 357.99,0 828.23,221.98 828.23,787.84l0 867.7 -468.51 0 0 -851 0.91 0z"/>
    <path class="fil3" d="M16735.51 4025.49l754.52 0c0,-131.6 -75.42,-319.35 -374.61,-319.35 -299.19,0 -379.91,187.75 -379.91,319.35zm-6.13 286.89c0,178.99 93.85,357.97 392.21,357.97 274.58,0 314.94,-164.07 314.94,-164.07l514.12 0c0,0 -48.25,528.17 -828.25,528.17 -543.9,0 -885.17,-304.44 -885.17,-847.53 0,-543.06 341.27,-844.86 879.03,-844.86 537.83,0 873.86,301.8 873.86,844.86 0,59.66 -8.78,125.46 -8.78,125.46l-1251.08 0 -0.88 0z"/>
   </g>
  </g>
 </g>
</svg>
